<svg width="100" height="100" viewBox="0 0 100 100" fill="none" xmlns="http://www.w3.org/2000/svg">
  <!-- Circle background -->
  <circle cx="50" cy="50" r="48" fill="#1948b3" fill-opacity="0.15" stroke="#1948b3" stroke-width="2"/>
  
  <!-- Car body -->
  <path 
    d="M25 55 L30 42 Q32 38 38 38 L62 38 Q68 38 70 42 L75 55 Q77 58 77 62 L77 68 Q77 70 75 70 L25 70 Q23 70 23 68 L23 62 Q23 58 25 55Z" 
    fill="#1948b3"
  />
  
  <!-- Windows -->
  <path 
    d="M33 45 L37 40 Q38 39 40 39 L50 39 L50 50 L33 50 Q32 50 32 48 L33 45Z" 
    fill="#e8f0fe"
  />
  <path 
    d="M52 39 L60 39 Q62 39 63 40 L67 45 L68 48 Q68 50 67 50 L52 50 L52 39Z" 
    fill="#e8f0fe"
  />
  
  <!-- Wheels -->
  <circle cx="33" cy="68" r="8" fill="#1e293b"/>
  <circle cx="33" cy="68" r="4" fill="#64748b"/>
  <circle cx="67" cy="68" r="8" fill="#1e293b"/>
  <circle cx="67" cy="68" r="4" fill="#64748b"/>
  
  <!-- Headlights -->
  <rect x="23" y="56" width="4" height="3" rx="1" fill="#fbbf24"/>
  <rect x="73" y="56" width="4" height="3" rx="1" fill="#fbbf24"/>
</svg>

