<svg xmlns="http://www.w3.org/2000/svg" viewBox="0 0 32 32" fill="none">
  <defs>
    <linearGradient id="grad" x1="0%" y1="0%" x2="100%" y2="100%">
      <stop offset="0%" style="stop-color:#1948b3"/>
      <stop offset="100%" style="stop-color:#366be3"/>
    </linearGradient>
  </defs>
  <rect width="32" height="32" rx="8" fill="url(#grad)"/>
  <path d="M24 20.5c0 .83-.67 1.5-1.5 1.5s-1.5-.67-1.5-1.5.67-1.5 1.5-1.5 1.5.67 1.5 1.5zM11 20.5c0 .83-.67 1.5-1.5 1.5S8 21.33 8 20.5 8.67 19 9.5 19s1.5.67 1.5 1.5z" fill="#ecc979"/>
  <path d="M23.46 12.01l-1.5-4.5A1.5 1.5 0 0020.54 6H11.46a1.5 1.5 0 00-1.42 1.01l-1.5 4.5L6 17v6a1 1 0 001 1h1a1 1 0 001-1v-1h14v1a1 1 0 001 1h1a1 1 0 001-1v-6l-2.54-4.99z" fill="white" opacity="0.95"/>
  <path d="M9 17l1.5-5h11l1.5 5H9z" fill="url(#grad)" opacity="0.3"/>
</svg>

