<svg xmlns="http://www.w3.org/2000/svg" viewBox="0 0 32 32">
  <rect width="32" height="32" rx="6" fill="#1948b3"/>
  <!-- BMW M440i Convertible Side Profile -->
  <g fill="none" stroke="white" stroke-width="1.2" stroke-linecap="round" stroke-linejoin="round">
    <!-- Body -->
    <path d="M4 18h24M4 18c0-2 1-3 2-4l3-3c1-1 2-1.5 4-1.5h6c2 0 3 .5 4 1.5l3 3c1 1 2 2 2 4" fill="rgba(255,255,255,0.15)"/>
    <!-- Hood line -->
    <path d="M6 14l3-3c1-1 2-1.5 4-1.5h6"/>
    <!-- Windshield -->
    <path d="M13 9.5l-2 4.5"/>
    <!-- Door -->
    <path d="M15 14v4"/>
    <!-- Wheels -->
    <circle cx="9" cy="18" r="2.5" fill="rgba(255,255,255,0.2)"/>
    <circle cx="9" cy="18" r="1"/>
    <circle cx="23" cy="18" r="2.5" fill="rgba(255,255,255,0.2)"/>
    <circle cx="23" cy="18" r="1"/>
    <!-- Convertible top down hint -->
    <path d="M19 9.5c2 0 3 .5 4 1.5l2 2"/>
  </g>
</svg>
